<svg width="589" height="294" viewBox="0 0 589 294" fill="none" xmlns="http://www.w3.org/2000/svg">
<g clip-path="url(#clip0_0_4)">
<text fill="white" xml:space="preserve" style="white-space: pre" font-family="Inter" font-size="12" letter-spacing="0px"><tspan x="366.211" y="278.864">1</tspan></text>
<text fill="white" xml:space="preserve" style="white-space: pre" font-family="Hiragino Kaku Gothic Pro" font-size="8" letter-spacing="0px"><tspan x="374" y="278.04">&#x6708;</tspan></text>
<text fill="white" xml:space="preserve" style="white-space: pre" font-family="Inter" font-size="12" letter-spacing="0px"><tspan x="572.35" y="278.864">5</tspan></text>
<text fill="white" xml:space="preserve" style="white-space: pre" font-family="Hiragino Kaku Gothic Pro" font-size="8" letter-spacing="0px"><tspan x="581" y="278.04">&#x6708;</tspan></text>
<text fill="white" xml:space="preserve" style="white-space: pre" font-family="Inter" font-size="12" letter-spacing="0px"><tspan x="417.367" y="278.864">2</tspan></text>
<text fill="white" xml:space="preserve" style="white-space: pre" font-family="Hiragino Kaku Gothic Pro" font-size="8" letter-spacing="0px"><tspan x="426" y="278.04">&#x6708;</tspan></text>
<text fill="white" xml:space="preserve" style="white-space: pre" font-family="Inter" font-size="12" letter-spacing="0px"><tspan x="-0.744141" y="278.864">6</tspan></text>
<text fill="white" xml:space="preserve" style="white-space: pre" font-family="Hiragino Kaku Gothic Pro" font-size="8" letter-spacing="0px"><tspan x="8" y="278.04">&#x6708;</tspan></text>
<text fill="white" xml:space="preserve" style="white-space: pre" font-family="Inter" font-size="12" letter-spacing="0px"><tspan x="154.256" y="278.864">9</tspan></text>
<text fill="white" xml:space="preserve" style="white-space: pre" font-family="Hiragino Kaku Gothic Pro" font-size="8" letter-spacing="0px"><tspan x="163" y="278.04">&#x6708;</tspan></text>
<text fill="white" xml:space="preserve" style="white-space: pre" font-family="Inter" font-size="12" letter-spacing="0px"><tspan x="469.18" y="278.864">3</tspan></text>
<text fill="white" xml:space="preserve" style="white-space: pre" font-family="Hiragino Kaku Gothic Pro" font-size="8" letter-spacing="0px"><tspan x="478" y="278.04">&#x6708;</tspan></text>
<text fill="white" xml:space="preserve" style="white-space: pre" font-family="Inter" font-size="12" letter-spacing="0px"><tspan x="52.0723" y="278.864">7</tspan></text>
<text fill="white" xml:space="preserve" style="white-space: pre" font-family="Hiragino Kaku Gothic Pro" font-size="8" letter-spacing="0px"><tspan x="60" y="278.04">&#x6708;</tspan></text>
<text fill="white" xml:space="preserve" style="white-space: pre" font-family="Inter" font-size="12" letter-spacing="0px"><tspan x="203.461" y="278.864">10</tspan></text>
<text fill="white" xml:space="preserve" style="white-space: pre" font-family="Hiragino Kaku Gothic Pro" font-size="8" letter-spacing="0px"><tspan x="217" y="278.04">&#x6708;</tspan></text>
<text fill="white" xml:space="preserve" style="white-space: pre" font-family="Inter" font-size="12" letter-spacing="0px"><tspan x="520.15" y="278.864">4</tspan></text>
<text fill="white" xml:space="preserve" style="white-space: pre" font-family="Hiragino Kaku Gothic Pro" font-size="8" letter-spacing="0px"><tspan x="529" y="278.04">&#x6708;</tspan></text>
<text fill="white" xml:space="preserve" style="white-space: pre" font-family="Inter" font-size="12" letter-spacing="0px"><tspan x="102.303" y="278.864">8</tspan></text>
<text fill="white" xml:space="preserve" style="white-space: pre" font-family="Hiragino Kaku Gothic Pro" font-size="8" letter-spacing="0px"><tspan x="111" y="278.04">&#x6708;</tspan></text>
<text fill="white" xml:space="preserve" style="white-space: pre" font-family="Inter" font-size="12" letter-spacing="0px"><tspan x="257.422" y="278.864">11</tspan></text>
<text fill="white" xml:space="preserve" style="white-space: pre" font-family="Hiragino Kaku Gothic Pro" font-size="8" letter-spacing="0px"><tspan x="270" y="278.04">&#x6708;</tspan></text>
<text fill="white" xml:space="preserve" style="white-space: pre" font-family="Inter" font-size="12" letter-spacing="0px"><tspan x="310.078" y="278.864">12</tspan></text>
<text fill="white" xml:space="preserve" style="white-space: pre" font-family="Hiragino Kaku Gothic Pro" font-size="8" letter-spacing="0px"><tspan x="323" y="278.04">&#x6708;</tspan></text>
<path d="M8 0V268" stroke="#777777"/>
<path d="M60 0V268" stroke="#777777"/>
<path d="M112 0V268" stroke="#777777"/>
<path d="M164 0V268" stroke="#777777"/>
<path d="M216 0V268" stroke="#777777"/>
<path d="M268 0V268" stroke="#777777"/>
<path d="M320 0V268" stroke="#777777"/>
<path d="M372 0V268" stroke="#777777"/>
<path d="M424 0V268" stroke="#777777"/>
<path d="M476 0V268" stroke="#777777"/>
<path d="M528 0V268" stroke="#777777"/>
<path d="M580 0V268" stroke="#777777"/>
<path d="M8 18.329L60 26.7641L112 97.3528L164 70.2781L216 85.1506L268 115.111L320 85.1506L372 123.5L424 144.5L476 152.871L528 164.625L580 152.542" stroke="#FFCC21" stroke-width="3"/>
<circle cx="60.5" cy="27" r="4" fill="#FFCC21"/>
<circle cx="8" cy="18.5" r="4" fill="#FFCC21"/>
<circle cx="112.5" cy="98" r="4" fill="#FFCC21"/>
<circle cx="164.5" cy="71" r="4" fill="#FFCC21"/>
<circle cx="267.5" cy="115" r="4" fill="#FFCC21"/>
<circle cx="215.5" cy="85" r="4" fill="#FFCC21"/>
<circle cx="320.5" cy="85" r="4" fill="#FFCC21"/>
<circle cx="372.5" cy="124" r="4" fill="#FFCC21"/>
<circle cx="423.5" cy="144" r="4" fill="#FFCC21"/>
<circle cx="475.5" cy="153" r="4" fill="#FFCC21"/>
<circle cx="527.5" cy="165" r="4" fill="#FFCC21"/>
<circle cx="580.5" cy="153" r="4" fill="#FFCC21"/>
<path d="M8 18.329L60 37.4996L112 80.4996L164 88.4996L216 130.5L268 134.5L320 161.5L372 167.5L424 181.5L476 217.5L528 227.875L579.93 238.5" stroke="#8FE9D0" stroke-width="3"/>
<circle cx="59.5" cy="38" r="4" fill="#8FE9D0"/>
<circle cx="8" cy="18.5" r="4" fill="#8FE9D0"/>
<circle cx="112.5" cy="81" r="4" fill="#8FE9D0"/>
<circle cx="163.5" cy="89" r="4" fill="#8FE9D0"/>
<circle cx="215.5" cy="131" r="4" fill="#8FE9D0"/>
<circle cx="268.5" cy="135" r="4" fill="#8FE9D0"/>
<circle cx="319.5" cy="161" r="4" fill="#8FE9D0"/>
<circle cx="371.5" cy="168" r="4" fill="#8FE9D0"/>
<circle cx="424.5" cy="182" r="4" fill="#8FE9D0"/>
<circle cx="476.5" cy="217" r="4" fill="#8FE9D0"/>
<circle cx="579.5" cy="239" r="4" fill="#8FE9D0"/>
<circle cx="527.5" cy="228" r="4" fill="#8FE9D0"/>
</g>
<defs>
<clipPath id="clip0_0_4">
<rect width="589" height="293.625" fill="white"/>
</clipPath>
</defs>
</svg>
